<svg height="512pt" viewBox="-70 0 511 512" width="512pt" xmlns="http://www.w3.org/2000/svg"><path d="m371.257812 185.378906c0 141.242188-185.378906 326.621094-185.378906 326.621094s-185.378906-185.378906-185.378906-326.621094c0-102.382812 82.996094-185.378906 185.378906-185.378906 102.382813 0 185.378906 82.996094 185.378906 185.378906zm0 0" fill="#b30222"/><path d="m353.601562 177.464844c0 121.761718-167.722656 281.570312-167.722656 281.570312s-167.722656-159.808594-167.722656-281.570312c0-88.261719 75.089844-159.808594 167.722656-159.808594 92.632813 0 167.722656 71.546875 167.722656 159.808594zm0 0" fill="#ff0c38"/><path d="m335.949219 185.378906c0 82.878906-67.191407 150.070313-150.070313 150.070313s-150.070312-67.191407-150.070312-150.070313 67.191406-150.070312 150.070312-150.070312 150.070313 67.191406 150.070313 150.070312zm0 0" fill="#1e81ce"/><path d="m327.039062 158.9375c0 63.355469-51.359374 114.71875-114.71875 114.71875-63.355468 0-114.714843-51.363281-114.714843-114.71875s51.359375-114.71875 114.714843-114.71875c63.359376 0 114.71875 51.363281 114.71875 114.71875zm0 0" fill="#5aaae7"/><path d="m132.914062 105.929688h105.929688v141.242187h-105.929688zm0 0" fill="#ffd422"/><path d="m79.949219 185.378906h52.964843v61.792969h-52.964843zm0 0" fill="#e7b900"/><path d="m238.84375 141.242188h52.96875v105.929687h-52.96875zm0 0" fill="#e7b900"/><g fill="#fff"><path d="m159.398438 132.414062h17.652343v17.65625h-17.652343zm0 0"/><path d="m194.707031 132.414062h17.65625v17.65625h-17.65625zm0 0"/><path d="m159.398438 167.722656h17.652343v17.65625h-17.652343zm0 0"/><path d="m194.707031 167.722656h17.65625v17.65625h-17.65625zm0 0"/><path d="m159.398438 203.035156h17.652343v17.65625h-17.652343zm0 0"/><path d="m194.707031 203.035156h17.65625v17.65625h-17.65625zm0 0"/><path d="m97.605469 203.035156h17.652343v17.65625h-17.652343zm0 0"/><path d="m256.5 203.035156h17.65625v17.65625h-17.65625zm0 0"/><path d="m256.5 167.722656h17.65625v17.65625h-17.65625zm0 0"/><path d="m120.3125 91.191406-10.105469-14.484375c22.269531-15.535156 48.429688-23.742187 75.671875-23.742187v17.65625c-23.613281 0-46.285156 7.113281-65.566406 20.570312zm0 0"/><path d="m86.464844 128.007812-15.277344-8.84375c6.011719-10.394531 13.425781-19.941406 22.019531-28.371093l12.363281 12.621093c-7.46875 7.300782-13.890624 15.578126-19.105468 24.59375zm0 0"/><path d="m262.742188 385.828125-12.484376-12.484375c16.84375-16.84375 34.035157-42.535156 34.207032-42.792969l14.691406 9.792969c-.742188 1.113281-18.347656 27.414062-36.414062 45.484375zm0 0"/><path d="m223.769531 408.65625 17.65625-17.65625 12.484375 12.480469-17.65625 17.65625zm0 0"/><path d="m120.3125 91.191406-10.105469-14.484375c22.269531-15.535156 48.429688-23.742187 75.671875-23.742187v17.65625c-23.613281 0-46.285156 7.113281-65.566406 20.570312zm0 0"/><path d="m86.464844 128.007812-15.277344-8.84375c6.011719-10.394531 13.425781-19.941406 22.019531-28.371093l12.363281 12.621093c-7.46875 7.300782-13.890624 15.578126-19.105468 24.59375zm0 0"/><path d="m262.742188 385.828125-12.484376-12.484375c16.84375-16.84375 34.035157-42.535156 34.207032-42.792969l14.691406 9.792969c-.742188 1.113281-18.347656 27.414062-36.414062 45.484375zm0 0"/><path d="m223.769531 408.65625 17.65625-17.65625 12.484375 12.480469-17.65625 17.65625zm0 0"/></g></svg>